<svg xmlns="http://www.w3.org/2000/svg" viewBox="0 0 640 320">
    <title>Inday Trending</title>
    <path d="M61.32,179.45c.71-3.21,1.27-6.41,2.25-9.65l3.57-12c1.18-3.8,2.07-7.58,3.24-11.38,2.16-7,4.6-14.11,7.31-21.06a36.67,36.67,0,0,0,2.54-9.82,16.44,16.44,0,0,0,.09-2.62,14.55,14.55,0,0,1,2.27-.47c2.39-.2,4.73,0,7.21-1.16-3.33-1.78,1.79-6.06-9.44-5.09a63.56,63.56,0,0,0-7,.88l-6.95,1.42c-1.7.29-2.5,1.45-3.05,3l.68.22a1.23,1.23,0,0,0-.35.71c0,.42.8.48,1.08.46v.14l.12.12-.48.73.69.08-.24,1.11,5.19-.44c-4.33,11.2-8,22.49-11.91,33.8a215.59,215.59,0,0,0-9.22,36.31c-.07.83-.29,1.81-.37,2.63A28.5,28.5,0,0,0,50.16,200l-8.56.73c-.56.05-1.4.12-1.6.83a12.11,12.11,0,0,0,.65,2.13,6.26,6.26,0,0,0,5.61,2.67c6.59-.56,10.22-.6,16.83-2.95a3.94,3.94,0,0,0,2.56-2.14c-2,0-2-2.3-3.48-3.13l-3.93.34.43-4.84A102.22,102.22,0,0,1,61.32,179.45Zm3.13-68.14a4.21,4.21,0,0,1,.77-.76l.25.26Zm43.38,93.21c.83-9.26,13.42-38.18,18.07-48.18.87-2,3.62-7.86,3.78-9.65.28-3.18-4.66-5.5-7.29-5.68a10.65,10.65,0,0,0-3.88,2.94c-3.84,4-7.55,8.19-11.27,12.35-9.58,10.7-18,22.12-26.78,33.44l-.27-.12c3.52-8.26,10.5-25.72,11.22-33.74a8.4,8.4,0,0,0-5-8.62,9.24,9.24,0,0,0-1.89-.66,1.45,1.45,0,0,0-1.46.81,9.29,9.29,0,0,1,.23,2c-.33,3.74-2,8-3.39,11.54-2.92,7.8-9.29,24.66-10,32.13-.37,4.14,3.51,7.51,7.58,7.16a3.4,3.4,0,0,0,2.31-1c3.94-3.5,12.15-16,15.51-20.95,5.28-7.72,11.15-15.77,17.88-22.52a8.6,8.6,0,0,1,1.33-.94c-1.89,4.14-4.06,8.17-5.69,12.42-3.42,8.66-8.82,20.92-9.6,29.63-.58,6.49.38,13,8.38,12.3a1.61,1.61,0,0,0,1.52-1.5C108,207.11,107.71,205.9,107.83,204.52ZM124,147.58l.13.13-.18.43ZM123,150c-.69,1.56-1.67,3.16-2.51,4.74A20.86,20.86,0,0,1,123,150Zm-1.52-1.65c-1.65,2.88-3.44,5.78-4.95,8.65l-.44.31-.1,1.11-.41-.1.51-1a88,88,0,0,1,5.45-9.66ZM96.23,170.55a279.26,279.26,0,0,1,22.17-25.36l.25.25-.47.59c-7.93,9.32-16.77,17.9-23.9,27.71-1.11,1.46-2,3-3.18,4.38-.62.74-1.21,1.07-1.56,1.92l-.62.74C90.91,177.18,93.7,173.92,96.23,170.55Zm-3.27,7,0-.28.28,0a1.32,1.32,0,0,0,.41.1.63.63,0,0,1-.44.18l-.07.83-.56,0a1,1,0,0,1-.19.57.44.44,0,0,1-.11-.4l0-.42.27.11c.14,0,.42,0,.55.1A5.14,5.14,0,0,0,93,177.55Zm-1.15,2-.18.43-.7.06a1.28,1.28,0,0,0,.33-.58l.42,0Zm-9.32,14a.91.91,0,0,1,.33-.58Zm4.56-5.88-.62.74a5.59,5.59,0,0,1,1.27-1.76A7.27,7.27,0,0,0,87.05,187.66Zm.3-1.81.15-.15C87.49,185.84,87.49,185.84,87.35,185.85Zm-1.58-1a17.05,17.05,0,0,1,2.36-3.08C87.34,182.84,86.69,183.85,85.77,184.89Zm3.15-1h-.15l.16-.14Zm.21.67a17.41,17.41,0,0,1,2.7-3.66A41.12,41.12,0,0,1,89.13,184.6ZM92,182l0-.28.13.13Zm-.17-1.22a26.11,26.11,0,0,1,2.08-3.06A13.2,13.2,0,0,1,91.84,180.8Zm2.61-4.34c-.42,0-.58.33-.62.74-.13-.13-.1-.4-.09-.54l0-.41.27.11a.48.48,0,0,1,.41.1,1.49,1.49,0,0,0-.07-.81l0-.28h.14a1.32,1.32,0,0,0,.41.1l-.3.16A1.77,1.77,0,0,1,94.45,176.46Zm.55.09-.3.3.49-.86Zm2.29-2.25,0-.28.16-.15A.6.6,0,0,1,97.29,174.3Zm-.1-.4,0,.13a4.19,4.19,0,0,0-.89.63l1.27-1.75A2.29,2.29,0,0,1,97.19,173.9Zm8.89-10.78a12.56,12.56,0,0,0-2,2.51l-.76.75-.29,0-.63.88.27.11a1.82,1.82,0,0,0-.63.74l-.44.31a9.27,9.27,0,0,1-1.6,2.34l-.28,0-1,.64a5,5,0,0,0,.68-1.43,56.43,56.43,0,0,0-4.23,5.3l-.09-.54,0-.42a206.85,206.85,0,0,1,20.8-24.14c-1.71,2.07-9.24,10-10.09,11.7a38.06,38.06,0,0,0,5-5.1l0,.56.27.11A30,30,0,0,0,106.08,163.12Zm8-9.06a10.09,10.09,0,0,0-1.68,1.65,2.56,2.56,0,0,0-1.31.66l6-6.41-1.73,2.21C115.34,153,114.47,153.34,114.13,154.06Zm1.22,5.11,0,.27h-.14C115.19,159.32,115.33,159.3,115.35,159.17Zm-1.21,2.57h.14l-.15.15Zm12.44-14.65.41.1c-3.33,7.69-7.19,15.16-10.52,22.85-2.8,6.41-4.79,13.17-7.73,19.59a3.68,3.68,0,0,1-.64.88C112.46,177.52,119.66,159.21,126.58,147.09Zm-19.91,48.62h-.14l0-.42h.14Zm.53-1.28-.41-.11,1.29-3.54A35.15,35.15,0,0,1,107.2,194.43ZM163.93,164a3.72,3.72,0,0,1,1.06-2.56l6.61-7c7.08-7.61,16.92-22.72,17.78-32.39.44-5-2.67-10.74-8.28-10.26-2.24.2-4.77,1.92-6.57,3.45-12.36,10.53-16.56,28-20,42-3.75-1.73-7.34-3.62-12-3.22-10.52.91-17.28,14.24-18.06,23.09-.7,7.87,1.28,16.89,10.82,16.07,8-.69,12.69-9.6,17.14-15.74l.28,0c.33,7.24.38,20.81,4.49,26.21a7.08,7.08,0,0,0,6.46,2.6c.84-.07,3.66-.45,3.78-1.83a1.08,1.08,0,0,1-.1-.41c-1.94-.1-3.69-.77-4.38-2.5-2-5.17-.73-20-.18-26.18C163.11,171.64,163.6,167.76,163.93,164Zm4.36-6.82,0-.28h.14C168.31,157.07,168.31,157.07,168.29,157.21Zm3.3-5.77a1.73,1.73,0,0,0-.62.74,20.28,20.28,0,0,1-2.78,3.12l2.07-2.92a1.4,1.4,0,0,0,.71-.2l.06-.69.45-.31.41.1C171.75,151.29,171.73,151.43,171.59,151.44Zm1.2.58,0-.41-1.18.79,1.24-1.48c0,.27-.17.42-.06.69H173Zm15.27-29.15a2.54,2.54,0,0,1,.56,1.46c-.13,1.52-2,7.17-3.09,8.22L185,134l-.47.59c-.07.83-1.29,2-1.37,2.86l-.77.89-.33.57a6.8,6.8,0,0,0-.88,2l-.08-.68L180,141.81l.28,0-.33.58-.34.71a3.68,3.68,0,0,0-.64.88l-.33.58c-.46.45-.64,1-1.09,1.33l-.19.56-.09-.54c-1.63,1.1-2.24,3.21-3.73,4.3,2.24-3.21,5.18-6.48,6.73-9.91a60.69,60.69,0,0,0-5.52,7.34l-.45.31-.07.83c-.7.06-1.5,1.22-1.83,1.8l.06-.69a8.19,8.19,0,0,0,.95-1.32l.27.12c.14,0,.42,0,.55.09a1.72,1.72,0,0,1-.21-.81l0-.27.44-.32c0-.41,1.59-2.19,1.93-2.9l.78-.89a85.12,85.12,0,0,0,6-9.85A105.8,105.8,0,0,0,187.62,123Zm-1.43.4,0,.41c0,.15,0,.32-.06.48l-.18-.87Zm-15-2.42a20.27,20.27,0,0,1,3-3.54l.92-1,.28,0-1.2,1.07a26.42,26.42,0,0,1-3,3.54l-.48.73A1.56,1.56,0,0,1,171.66,120.85Zm-.74,8.43,0-.41c1.38-3,5.69-10.78,8.74-12.14-3.52,3.6-5.68,7.49-8.13,11.54a7.77,7.77,0,0,0-.64,1c-.35.72-.27,1.4-1.15,1.88A9.36,9.36,0,0,1,170.92,129.28Zm-2.78,6.14,0,.27c-.14,0-.14,0-.13-.12Zm-.63-8.59,0,.28h-.14C167.36,127,167.5,127,167.51,126.83Zm12.55-7.93c1.4-1.77,2.78-3.12,4.91-3.58,1.38,1.66,1.18,3.87,1,6.09-.69,7.73-9.87,20.18-15.18,26.67-.63.74-4.11,5.43-4.81,5.49C169.11,141.78,171.9,129.2,180.06,118.9ZM166,155.08a100,100,0,0,0,15-20.22,44.79,44.79,0,0,0,4.6-9.45c.19-.55.11-1.09.92-1.17-1.27,7.77-14.88,25.28-20.59,31.39Zm-29.09,9.22,0,.28c-.13-.13-.13-.13-.12-.26Zm-5,5a2.3,2.3,0,0,1-.35.86,1.32,1.32,0,0,0-.1-.41A.56.56,0,0,1,131.85,169.26ZM127,176.54a19.76,19.76,0,0,1,2.08-7.73C128.33,171.35,127.68,173.87,127,176.54Zm2.62-1.33a15.68,15.68,0,0,1,1.54-4.79l.3-.16-1.79,6.05C129.73,175.89,129.62,175.63,129.65,175.21Zm1.91,6.69a20.78,20.78,0,0,1-.05-4.1c.42-4.7,2.14-8.42,4.62-12.75l.72-.33C133.3,170.24,132.64,176.05,131.56,181.9Zm3.15-8.77h-.14l0-.27.14,0Zm18.47-5.71c-.12,1.39-12.1,17.09-14,19.31a29.67,29.67,0,0,1-2.88,2.72c-1.78-1.91-1.57-7.41-1.33-10.17.64-7.19,3.89-15.56,10.06-20.75a2.48,2.48,0,0,1,1.59-.69c3.09-.27,4.62,2.89,6.72,4.36l.28,0ZM162,158h-.15l.08-.83H162Zm.41-3.05v-.14h.14Zm.56-1.7v.14h-.14ZM214,170.69l0-.14a6.2,6.2,0,0,1-.68,1.29l-.44.31h.14a8.55,8.55,0,0,0-1,1.87l-.09-.54-1,1.59h.14l-.33.58.14,0a22.36,22.36,0,0,0-1.45,2.19c-.52,1.14-1.71,2.06-2.09,3.19l-.33.58-.45.31-.33.58.05-.55a5.32,5.32,0,0,0-1.76,2.62l.28,0,.15-.15v.14h-.14a11.35,11.35,0,0,0-1.46,2.32l-.09-.54-1.05.78,1.48-2.46-5,5.5c3-5.33,8-10.29,11.41-15.52l-.77.75c-.76.75-1.42,1.91-2,2.65-2.49,3-5,6.19-7.75,8.89,0,.14,0,.14-.16.15v-.14h.15c1.52-3,4.24-5.44,6.3-8.22l-.28,0c-1.54,1.65-3.12,3.7-5,5,.39-4.42,8.09-22.09,10.36-27.22a10.07,10.07,0,0,0,.94-2.82c.06-.69-.46-1.06-1.15-1.14-1.8,3-3.21,6.31-4.88,9.47,0,.28-.32.44-.47.59s0,.14-.15.15l.15-.15c1.56-3.42,3.12-6.85,4.54-10.4l-.67-.21V152l-.59.33.23-1a.94.94,0,0,0-.67-.35,1.15,1.15,0,0,0-.89.62l-.45.31-.2.71-.43.17c.61-.6.32-.44.65-1l.43-.17,0-1.37c-3.34,1.52-4,4.46-6.74,6.89l-14.52,13-2.4,1.86-.25-.26c4.86-9.33,10.91-21,21.32-25.28l4,.75a2.36,2.36,0,0,0,.36-.85,1.4,1.4,0,0,0-.47-1.06c-2.31-2.13-5.09-3.81-8.6-3.51s-7.19,2.54-10.16,4.72c-7.16,5.28-17.31,20.82-18,29-.34,3.87,4.57,6.6,8.08,6.29,4.91-.42,9.5-6.57,12.71-9.87l5.2-5.25c-2.19,7.46-4.53,14.93-5.19,22.39-.34,3.87,1.88,4,4.87,4.79,6.6-5.36,14.57-18.26,18.3-25.71A28.56,28.56,0,0,0,214,170.69Zm-6.44-16.86a1.29,1.29,0,0,1-.2.7A1.43,1.43,0,0,1,207.58,153.83Zm-.21.84-.66,1.15a1.23,1.23,0,0,0-.1-.4C206.64,155,206.94,154.84,207.37,154.67Zm-1.72-.95-1.31,2.17A6.06,6.06,0,0,1,205.65,153.72Zm-1.32,11.63,0,.41-.17.29A1.21,1.21,0,0,1,204.33,165.35Zm-.54,1.42-.18.42A.59.59,0,0,1,203.79,166.77Zm-.38,1.13a6,6,0,0,1-1.23,2.85A25,25,0,0,1,203.41,167.9Zm-1.38,3,.14,0-.33.58Zm-.24,1.11-.06.7h-.14A1.4,1.4,0,0,1,201.79,172Zm-1,3,0,.41-.11-.26Zm-.93,2.68H200l0,.28h-.14ZM188.18,154.4l0,.14H188C188,154.41,188,154.41,188.18,154.4Zm-1-2.38h.14l-.45.31Zm.39,3.4v.13l-.28,0C187.38,155.57,187.38,155.57,187.53,155.42Zm-10.41,12.14H177c0-.14.17-.29.18-.43Zm.56-1.56-.34.72a1.19,1.19,0,0,1,.34-.72c1.21-2.71,6.23-10.55,8.36-12.65l.33-.58c-.06.69-1.46,2.32-1.93,2.91-2.22,3.07-4.2,6.53-6.29,9.73C178.12,165.69,177.83,165.85,177.68,166Zm8-8.37,0,.28c-1.77,2.62-3.66,5.11-5.3,7.86A50,50,0,0,1,185.66,157.63Zm-5.85,9.42-.5,1-.15,0C179.47,167.77,179.52,167.21,179.81,167.05Zm-.85,8h-.14a.92.92,0,0,1,.19-.56Zm.72-1.85a2.75,2.75,0,0,1-.65,1c.56-1.56,1-3.24,1.68-4.81,1.76-4.13,8-14.4,11.81-16.92A88.19,88.19,0,0,0,179.68,173.23Zm19.29,18a.38.38,0,0,1,.31-.3Zm.46-.45,1.09-1.33C200.46,190.09,199.89,190.28,199.43,190.73Zm1-.78c.14,0,.15-.15.29-.16C200.76,189.93,200.62,189.94,200.48,190Zm.2-.7.95-1.32c0,.28-.19.57-.21.85Zm.89-.62.15-.15C201.71,188.61,201.71,188.61,201.57,188.63Zm.71-.2-.28,0c.14,0,.16-.15.3-.16Zm.66-1.16h-.14l.45-.31h.14Zm3.15-4.11a.92.92,0,0,1,.19-.56A.94.94,0,0,1,206.09,183.16Zm52.29-47.84a1.22,1.22,0,0,0-.47.59c0-.27,0-.41.47-.59l-.08-2.18-1.82,1.66a38.76,38.76,0,0,0-5.28,7.73c-6.34,11.79-13.44,22.68-23.1,32.7l.14-1.52c2.51-7.89,5.84-15.59,6.55-23.6.52-5.8-1.51-12.76-7.86-13.45-.15,1.66.12,3.42,0,5.08-.43,4.84-3,10.13-4.8,14.81-2.17,5.67-5.47,12.95-6,18.62-.54,6.08,2.54,7.46,6.83,9.28l1.35.57a3.28,3.28,0,0,0,2,.51c5.33-.46,15.51-14.64,18.55-19.15a49.12,49.12,0,0,1-1.61,8.78c-4.21,16-7.43,31.9-15.22,47.38-2.36,4.73-6.49,12-10.71,15.6l-3.31,2.75c-.45-2.7-1.53-4.66-1.26-7.7a24.45,24.45,0,0,1,1.16-5.31c0-.14.17-.29.18-.43,2-6.76,4.69-12.06,8.05-18.52,2.2-4.31,4.38-8.47,8.67-11.31-.91-.74-3.72-2-5-1.9-5.75.5-16.59,23.78-18.44,28.88a38,38,0,0,0-1.95,9.49c-.36,4,.14,7.81,3.58,9.84a14.27,14.27,0,0,0,8.17,2c3.65-.32,7.05-2.53,9.92-5.11,11.05-9.86,18.41-27,22.08-40,1.63-5.76,2.86-11.77,3.93-17.62,1.25-6.14,2.19-12.12,3.3-18.25a147.09,147.09,0,0,1,3.16-15.22c.44-1.82,1-3.65,1.6-5.48l1.64-5.9c-1-1.43-2.14-2.56-3.14-3.85A2.79,2.79,0,0,1,258.38,135.32Zm-25.64,37.87c0-.14.16-.29.32-.44Zm4.6-6.3-.19.57A.89.89,0,0,1,237.34,166.89Zm-3.55,10.18c.29-.16.57-.18.72-.33A.88.88,0,0,1,233.79,177.07Zm3.21-3.29-.45.45a1.07,1.07,0,0,1-.58.19c-.15.15-.6.46-.61.6a1.23,1.23,0,0,1,.47-.59c1.21-1.07,1.38-1.35,1.55-1.78A3.43,3.43,0,0,1,237,173.78Zm1.6-2.33a1.88,1.88,0,0,1,.2-.71A4.7,4.7,0,0,1,238.6,171.45Zm-.54-4.89a3.68,3.68,0,0,1,.84-1.58l.59-.33.36-1a1,1,0,0,1,.58-.19l-.59.33c0,.27-.2.7-.23,1C239.05,164.83,238.25,166,238.06,166.56Zm1.33,3.86c.15-.15.32-.44.6-.46C239.82,170.25,239.68,170.26,239.39,170.42Zm1-1.46c0,.42-.35.72-.36.86a2.74,2.74,0,0,1,.37-1l.72-.34C240.93,168.78,240.51,168.81,240.36,169Zm.3-6.6a6.66,6.66,0,0,1-.2.7,1.91,1.91,0,0,1,.22-.84c.28,0,.57-.19.85-.21,0-.28.2-.7.23-1,.29-.16.57-.19.72-.34L242,161a3.43,3.43,0,0,0-.51,1C241.38,162.16,241,162.19,240.66,162.36Zm1.7,4.37c-.15.16-.43.18-.6.47l0-.14c0-.14,0-.28.58-.33,0-.27.18-.42.19-.56Zm1-1.59a1.88,1.88,0,0,1,.64-.87C244,164.54,243.93,164.82,243.34,165.14Zm.46-6.76c0,.28-.19.57-.21.84l-.42,0a2.5,2.5,0,0,0,.63-.88,1.2,1.2,0,0,1,.88-.48C244.52,158.19,244.1,158.22,243.8,158.38Zm-18.2,41.89a1,1,0,0,0-.19.56.24.24,0,0,0-.26-.25C225.32,200.29,225.46,200.28,225.6,200.27ZM223,204.19l.51-1c0,.41-.34.71-.38,1.13-.28,0-.31.3-.73.34C222.59,204.37,222.87,204.34,223,204.19Zm-7.82,14.39a.92.92,0,0,1,.19-.56A.94.94,0,0,1,215.2,218.58Zm1.94-4.55a.49.49,0,0,1,.29-.17Zm4.08-13.11a1.33,1.33,0,0,1,.59-.32.38.38,0,0,0-.31.3.6.6,0,0,1-.29.16Zm-.05.55-.17.43A.58.58,0,0,1,221.17,201.47Zm-1,1.87-.36,1c-.28,0-.44.18-.72.2C219.69,204.07,219.72,203.79,220.17,203.34Zm-1.54,7.95c0,.14.12.27.1.4l-.15.15Zm-1.48-3.71a1.08,1.08,0,0,1,1.07-1.05l-1,1.59C217.11,208,217.14,207.72,217.15,207.58Zm.08.68a.93.93,0,0,1-.57.18A.93.93,0,0,1,217.23,208.26ZM216,217l-.45.45a4.9,4.9,0,0,0,.72-1.84l.34-.72Zm.11-7.41a2.29,2.29,0,0,1,.36-1,3,3,0,0,1-.36,1,5.47,5.47,0,0,0-.2.7A1.06,1.06,0,0,1,216.14,209.59Zm-.28,1.53a30.89,30.89,0,0,0-1.89,2.49C214.09,212.23,214.29,211.53,215.86,211.12Zm-2.69,11.48a3,3,0,0,1,.38-1.14,4.08,4.08,0,0,0,.08.68A.47.47,0,0,1,213.17,222.6Zm.77-8.71a1.29,1.29,0,0,1-.2.7l-.61.6A13.71,13.71,0,0,0,213.94,213.89Zm-5.32,12.94a.62.62,0,0,1-.18.42l.09-1A.82.82,0,0,1,208.62,226.83Zm.28-1.67.08-.83c0,.27.12.26.1.4S208.92,225,208.9,225.16Zm1.73-3.72h-.14c0,.28,0,.42-.33.58,0-.27.05-.55.33-.58.17-.42.48-.72.49-.86A2.26,2.26,0,0,1,210.63,221.44Zm.54-1.42a1.59,1.59,0,0,1-.06-.81C211.23,219.33,211.22,219.47,211.17,220Zm.7-1.56.2-.71A1.15,1.15,0,0,1,211.87,218.46Zm.59-2a3.42,3.42,0,0,1-.24,1.11Zm-.11,9.06.05-.56c0,.14.12.27.11.4Zm32.78-69.61.91-.77a2.83,2.83,0,0,0-.64.88l-.49.87C244.93,156.64,245.11,156.21,245.13,155.94ZM239,211.05l-.07.69-.47.59C238.81,211.47,238.83,211.2,239,211.05Zm-1.13-4.57-.05.55c-.14,0-.14,0-.13-.12A1.55,1.55,0,0,0,237.86,206.48Zm-.88,2c0-.13,0-.13.32-.43a1.93,1.93,0,0,1-.21.84A.46.46,0,0,1,237,208.47Zm-6.84,15.95-.16.15c0-.41.18-.42.33-.57A.58.58,0,0,0,230.14,224.42Zm3.11,4.12a2,2,0,0,1,.22-.84A1.88,1.88,0,0,1,233.25,228.54Zm-.72-9.12a7,7,0,0,1,1.17-2.16A17,17,0,0,1,232.53,219.42Zm1.58-3.7a.91.91,0,0,0-.33.57,1.32,1.32,0,0,1,.34-.71l1.81-4.68c-.41,1.54-.83,3.08-1.38,4.64Zm.64,10.09c.81-1.31,1.36-2.72,2-4,1.38-3,7-17.46,7.93-18.78C243.74,206.11,238.28,223.72,234.75,225.81Zm10-23.08c0-.27-.09-.54-.07-.81s.33-.58.75-.62A5,5,0,0,0,244.74,202.73Zm.53-2.92.16,1.35A2.33,2.33,0,0,1,245.27,199.81Zm.61-38.18-.15.15a2.45,2.45,0,0,0-.6.47l0-.42.71-.2a2.3,2.3,0,0,1,.37-1Zm1-8a4.66,4.66,0,0,0-.52,1.15c0-.42.21-.71.24-1.12l.33-.58Zm.69-1.43a2.68,2.68,0,0,1,.89-.62Zm1.88-2.35a3.31,3.31,0,0,0-1,1.59c.1-1.11,1.14-1.88,1.23-2.85C249.65,149,249.47,149.39,249.44,149.81Zm61.32-44.5c1.08-2.7,4.46-9.44,4.67-11.79a2.43,2.43,0,0,0-.4-1.75c7.42-2,15-4,22.5-5.64,6.53-1.38,13.18-2.5,19.69-3.75a81,81,0,0,0,8.07-1.52l2.44-.76-.12-.26-1.22-.31L365,75.27c-2.68-1.28-11.85-1.45-15.36-1.15C330.94,75.73,312.42,82,294,87.42l-16.59,4.85a47.7,47.7,0,0,1-8.53,2c-1.54.13-3.88-.21-4.09,2.14-.06.69,1.85,4.36,2.32,5.28,2.42,1,3,1.94,6.12,1.67,7.44-.64,19.79-4.86,27.51-7.17-.41,3-5.37,13.49-6.83,17.32-8.14,21.13-18,50.92-19.92,72.2-.69,7.74-.52,15.27,4.27,20.89a6.54,6.54,0,0,0,4.77,2.74,10.5,10.5,0,0,1,2,.51l.17-.29c-1.41-6.05-2.34-11.32-1.75-17.95a47.12,47.12,0,0,1,1-6.25c1.21-5.87,2.43-11.73,3.92-17.48,2.35-9.26,5.66-18.32,8.84-27.51,1.51-4.38,3-8.89,4.81-13.3Zm18.6,21c.13-3,0-6,0-9-.13-4.79-2.56-8.83-7-10.37a7.06,7.06,0,0,0-3.44-.52c-4.07.35-7.84,5.2-8.17,8.93-.65,7.32,6.43,10.69,11.44,13.82A119.7,119.7,0,0,1,305,166a57.45,57.45,0,0,1-6.71,8.11l-.32.44,4.77,1.24a25.9,25.9,0,0,0,6.55-6.32c9-11.61,16.34-24,19.22-37.73,2.43.89,6.24,1.94,5.94,5.25-.18,2.07-2.12,6.63-3.14,8.77-4.16,9.14-11.39,24.71-12.21,34-.68,7.6,2.11,17,11.23,16.17,2.11-.18,6.39-1.37,6.63-4a3.28,3.28,0,0,0-.28-1.62l-1.12.1-.78.89-.12-.13.24-1.12L331,189.4a13.13,13.13,0,0,1-.5-5.3c.67-7.6,6.18-19.46,9.36-27,1.77-4.27,5.05-11.41,5.42-15.55a8,8,0,0,0-2.71-7.17C338.84,131,333.89,128.68,329.36,126.33Zm-15.47-13.89-.26-.25.95-1.32A5.75,5.75,0,0,0,313.89,112.44Zm3.31,1.91a1.14,1.14,0,0,1-.08-.68,2.93,2.93,0,0,1,1-1.73C317.75,112.79,317.54,113.63,317.2,114.35Zm1.77,2a7.61,7.61,0,0,1,2.66-4.89c1.37,1.8,1.54,7.68,1.31,10.31-.05.55-.25,1.25-.3,1.81C320.24,122.45,318.71,119.29,319,116.39Zm2.87,19.36.12.27-.15.15Zm-.4,1.41h.14l-.47.59Zm-.9,2.27h.14a1.26,1.26,0,0,1-.33.57A.92.92,0,0,0,320.54,139.43Zm-.2.7a.56.56,0,0,1-.18.43Zm-.52,1.14-.58,1.84A2.47,2.47,0,0,1,319.82,141.27Zm-.9,2.28.29-.17a18.33,18.33,0,0,1-1.9,4.14Zm-9.25,22.6h-.14l.15-.15Zm1.64-7.41,1.31-2.31A3.8,3.8,0,0,1,311.31,158.74Zm4.3-1.47a201.34,201.34,0,0,0,9.2-20.4c.16-.29.19-.57.48-.73C324.33,140.61,318.84,153.84,315.61,157.27Zm10-22.12h-.14l.05-.55h.14Zm.43-1.68h-.14l0-.42h.14Zm11.33,12.05.28,0-.32.43Zm-2.21-1.87h.15a.94.94,0,0,1-.2.56Zm-13,31.84,2-5.66,8.52-20.76c.55-1.42,1.14-3.39,2.22-4.58-2.77,7.65-6.07,15.06-9.11,22.59A62,62,0,0,1,322.21,175.49Zm2.71,2.37a1.38,1.38,0,0,1,.21-.7c0,.27.1.4.08.68Zm.38-1.13c1-3.1,1.69-6.45,2.94-9.58l8.65-20.49.46-.45c-1.5,5.89-4.66,11.65-7,17.33-1.77,4.27-3.13,8.64-4.76,12.89Zm11.12-24.82v.14h-.14ZM333.79,158l0,.13-.14,0Zm-2.32,5.68v.14l-.13-.13Zm-.35.85v.14l-.13-.12Zm-.37,1-.15.15v-.14Zm-2,5.1v.14h-.15Zm1.14,7.45c-.12-.13-.12-.13-.11-.27h.14Zm.41-1.41h-.14l0-.27.14,0Zm1.28-3.4h-.15l0-.41h.14ZM332,172h-.14l0-.41H332Zm.73-2h-.14c0-.14,0-.28.16-.29Zm.38-1.13H333l.15-.15Zm.51-1-.27-.11.16-.29A.45.45,0,0,1,333.61,167.92Zm.36-1-.14,0,0-.42H334Zm1.1-3c-.14,0-.14,0-.13-.13h.14Zm.22-.84c0-.14,0-.14.15-.15Zm.86-1.86v-.14h.14Zm.35-.85,0-.28h.14C336.65,160.26,336.64,160.39,336.5,160.41Zm.51-1h-.14l0-.27H337Zm1.91-4.28-.14,0,0-.28H339Zm.37-1h-.14V154h.14Zm.36-1-.12-.12.14,0Zm-3.06,3.15c-3,7-6.12,14-8.13,21-.6,2-.91,3.92-1.5,5.89a14.58,14.58,0,0,1,.08-2.47,31.74,31.74,0,0,1,2.15-8.56c3.78-9.65,7.72-19.45,11.91-29l.28,0C340.57,147.58,338.36,152,336.59,156.29Zm5.38-8.83h-.14l.15-.15Zm13.74,9.92c9.26-.8,22-9,22.86-19.11.54-6.08-2.84-10.31-8.3-11.63l-1.14.38,2.35,4.87a16.73,16.73,0,0,0-3.74-.23,18.59,18.59,0,0,0-13.36,7.73c-4.41,5.73-7.8,12.61-8.39,19.24-.73,8.15,3.81,13.52,12.37,12.78,3.93-.33,7.95-3.29,8.59-7.32l-.63.74a2.1,2.1,0,0,1-.68,1.43l.05-.55-.33.58h-.14l-.19.56h-.14l.12.27-.43,0v.13l-.27-.11.18-.43-1-.05c.22-.84,1.11-1.47,1.19-2.43a1.89,1.89,0,0,0-.22-.67c-1,1.32-1.35,2.72-3,3.55.52-1.15,1.73-2.21,1.84-3.46l0-.41-.16.15a8.34,8.34,0,0,1-6.56,5c-2,.17-1.92-5-1.8-6.43C355,160.87,355.05,158.54,355.71,157.38Zm13.94-12.72v.14l-.44.17.45-.31a.86.86,0,0,1,.19-.56Zm1-1.45,0-.14.32-.58A1.63,1.63,0,0,1,370.61,143.21Zm5.05-2a14.6,14.6,0,0,1-3.25,5.22C372.48,145.65,375,142.28,375.66,141.26Zm-3.26,2.2-.18.43h-.14Zm0,3.16a.58.58,0,0,1-.43.17A.58.58,0,0,1,372.4,146.62Zm-.88.49.31-.31C371.81,146.94,371.67,147,371.52,147.11Zm0-5.76.28,0a.41.41,0,0,1-.31.31Zm-.13-4.93,0,.56c-.45,5-8.61,13.76-13.71,14.75C359.26,145.55,364.92,138.35,371.35,136.42ZM361.1,140.6l.15-.15v.14l-.59.32C360.8,140.76,360.82,140.62,361.1,140.6Zm-6,9.56c.25-2.9,3.26-7,5.4-9.1C359,144.21,356.35,147,355.1,150.16Zm.44-5v-.28Zm1.79-2.9a1.39,1.39,0,0,1-.33.58h-.14C357,142.87,357.17,142.44,357.33,142.29Zm-1.11,1.47a1.16,1.16,0,0,1,.19-.56A.75.75,0,0,1,356.22,143.76Zm-4.06,3.37H352c0-.14,0-.14.15-.15Zm.68-1.43-.26-.12.48-.72Zm.37-1h-.14l.15-.15Zm1.19,7-.14,0a1.15,1.15,0,0,1,.2-.71Zm.27-9.34a2.1,2.1,0,0,1-1.1,1.46,14.59,14.59,0,0,1,1.1-1.46v-.14l.32-.44.8-1.17a.6.6,0,0,1,.44-.17l-.44.17c0,.28-.18.43-.2.7l-.6.47Zm59.77,35.71c.82-9.26,13.42-38.18,18.07-48.18.87-2,3.62-7.85,3.78-9.65.28-3.18-4.67-5.49-7.29-5.68a10.82,10.82,0,0,0-3.89,2.94c-3.84,4-7.55,8.19-11.26,12.35-9.58,10.7-18,22.12-26.78,33.44l-.27-.12c3.52-8.25,10.5-25.72,11.21-33.74a8.4,8.4,0,0,0-4.94-8.62,10.62,10.62,0,0,0-1.89-.66,1.51,1.51,0,0,0-1.47.81,10.06,10.06,0,0,1,.24,2c-.33,3.73-2,8-3.39,11.53-2.92,7.8-9.29,24.67-10,32.13-.37,4.14,3.51,7.51,7.58,7.16a3.38,3.38,0,0,0,2.32-1c3.93-3.49,12.14-16,15.51-21,5.28-7.72,11.15-15.77,17.87-22.52a9.41,9.41,0,0,1,1.34-.94c-1.9,4.14-4.07,8.17-5.7,12.43-3.41,8.65-8.82,20.91-9.59,29.62-.58,6.49.37,13,8.37,12.31a1.63,1.63,0,0,0,1.53-1.51C414.63,180.69,414.32,179.48,414.44,178.1Zm16.2-56.93.13.12-.18.43Zm-1.05,2.42c-.7,1.57-1.68,3.16-2.51,4.74A20.67,20.67,0,0,1,429.59,123.59Zm-1.53-1.65c-1.65,2.88-3.44,5.78-4.94,8.65l-.45.32-.1,1.1-.41-.1.51-1a88.1,88.1,0,0,1,5.46-9.66Zm-25.22,22.19A279.15,279.15,0,0,1,425,118.77l.26.26-.47.59c-7.93,9.32-16.77,17.9-23.91,27.7-1.1,1.47-1.94,3-3.17,4.39-.63.74-1.21,1.06-1.57,1.91l-.62.74C397.51,150.76,400.31,147.5,402.84,144.13Zm-3.27,7,0-.27.28,0a1.08,1.08,0,0,0,.41.1.56.56,0,0,1-.43.18l-.07.83-.57.05a.88.88,0,0,1-.19.56.46.46,0,0,1-.1-.4l0-.41.27.11c.14,0,.42,0,.55.09A5.14,5.14,0,0,0,399.57,151.13Zm-1.16,2-.17.43-.7.06a1.26,1.26,0,0,0,.32-.58l.43,0Zm-9.31,14a.83.83,0,0,1,.33-.58Zm4.56-5.88L393,162a5.72,5.72,0,0,1,1.27-1.75A7.14,7.14,0,0,0,393.66,161.24Zm.3-1.81.15-.15C394.1,159.42,394.1,159.42,394,159.43Zm-1.59-1a18.41,18.41,0,0,1,2.36-3.08C394,156.42,393.3,157.43,392.37,158.47Zm3.15-.95h-.14l.15-.15Zm.22.66a17.71,17.71,0,0,1,2.69-3.66A36.68,36.68,0,0,1,395.74,158.18Zm2.87-2.58,0-.27.13.12Zm-.17-1.22a26.38,26.38,0,0,1,2.08-3A12.55,12.55,0,0,1,398.44,154.38Zm2.62-4.33c-.42,0-.59.32-.62.73-.13-.12-.11-.4-.1-.54l0-.41.27.11a.46.46,0,0,1,.41.11,1.63,1.63,0,0,0-.07-.82l0-.28h.15a1.23,1.23,0,0,0,.4.1l-.29.17A1.93,1.93,0,0,1,401.06,150.05Zm.55.09-.31.29.5-.86Zm2.29-2.26,0-.27.15-.16A.58.58,0,0,1,403.9,147.88Zm-.11-.4v.14a3.6,3.6,0,0,0-.89.62l1.27-1.75A2.43,2.43,0,0,1,403.79,147.48Zm8.9-10.78a12.28,12.28,0,0,0-2,2.51l-.76.75-.28,0-.64.88.27.11a1.9,1.9,0,0,0-.62.75l-.44.31a9.68,9.68,0,0,1-1.6,2.33l-.29,0-1,.64a5,5,0,0,0,.69-1.43,53.37,53.37,0,0,0-4.23,5.3l-.09-.54,0-.41a208.83,208.83,0,0,1,20.81-24.15c-1.72,2.07-9.25,10-10.09,11.7a38.52,38.52,0,0,0,5-5.09l0,.55.26.11A29.64,29.64,0,0,0,412.69,136.7Zm8-9.06a10.15,10.15,0,0,0-1.68,1.66,2.52,2.52,0,0,0-1.31.66l6-6.42L422,125.75C421.94,126.58,421.07,126.93,420.73,127.64Zm1.22,5.11,0,.28h-.15C421.8,132.9,421.94,132.89,422,132.75Zm-1.2,2.57h.14l-.16.15Zm12.44-14.65.41.11c-3.33,7.69-7.2,15.15-10.53,22.84-2.79,6.42-4.79,13.17-7.73,19.59a3.37,3.37,0,0,1-.63.88C419.07,151.1,426.26,132.79,433.19,120.67Zm-19.92,48.62h-.14l0-.41.14,0Zm.53-1.28-.4-.1,1.28-3.54A33.15,33.15,0,0,1,413.8,168Zm55.77,7.13c-2.05-5.18-.74-20-.18-26.18.33-3.73.81-7.61,1.14-11.34a3.78,3.78,0,0,1,1.07-2.57l6.61-7c7.08-7.6,16.92-22.71,17.78-32.39.44-5-2.67-10.74-8.28-10.25-2.25.19-4.77,1.92-6.58,3.44-12.35,10.53-16.55,28-20,42-3.75-1.74-7.34-3.62-12-3.22-10.53.9-17.28,14.24-18.07,23.08-.7,7.88,1.29,16.89,10.83,16.07,8-.69,12.69-9.59,17.13-15.74l.28,0c.33,7.24.38,20.81,4.5,26.22a7.08,7.08,0,0,0,6.45,2.59c.84-.07,3.66-.45,3.79-1.83a1.25,1.25,0,0,1-.11-.4C472,177.53,470.25,176.86,469.57,175.14Zm5.33-44.35,0-.27.14,0C474.91,130.65,474.91,130.65,474.9,130.79Zm3.3-5.76a1.64,1.64,0,0,0-.62.73,19.92,19.92,0,0,1-2.79,3.12l2.07-2.92a1.36,1.36,0,0,0,.72-.2l.06-.69.44-.31.41.1C478.35,124.87,478.34,125,478.2,125Zm1.2.58,0-.42-1.19.79,1.25-1.48c0,.28-.18.43-.06.69h.14Zm15.26-29.16a2.55,2.55,0,0,1,.57,1.46c-.14,1.52-2,7.17-3.1,8.22l-.54,1.42-.47.59c-.08.83-1.3,2-1.37,2.86l-.78.89-.33.58a6.36,6.36,0,0,0-.87,2l-.08-.68-1.12,1.61.28,0-.33.57-.34.72a3.62,3.62,0,0,0-.63.88l-.33.57c-.46.45-.65,1-1.1,1.33l-.18.56-.1-.54c-1.63,1.1-2.23,3.21-3.72,4.3,2.24-3.21,5.17-6.48,6.73-9.9a60.93,60.93,0,0,0-5.53,7.33l-.44.31-.08.83c-.7.06-1.5,1.23-1.83,1.8l.06-.69a8.22,8.22,0,0,0,1-1.31l.27.11c.14,0,.42,0,.54.09a1.82,1.82,0,0,1-.2-.8l0-.28.45-.31c0-.42,1.59-2.2,1.93-2.91l.77-.89a83.82,83.82,0,0,0,6-9.85,105.63,105.63,0,0,0,4.43-10.66Zm-1.43.4,0,.42c0,.15,0,.31-.07.47l-.18-.87Zm-15-2.41a19.52,19.52,0,0,1,3-3.55l.93-1,.28,0-1.21,1.06a25.68,25.68,0,0,1-3,3.55l-.48.73C477.81,94.89,478.12,94.59,478.27,94.44Zm-.75,8.43,0-.42c1.38-3,5.69-10.77,8.73-12.13-3.52,3.59-5.67,7.48-8.12,11.53a7.27,7.27,0,0,0-.65,1c-.34.71-.26,1.39-1.14,1.88A9.06,9.06,0,0,1,477.52,102.87ZM474.75,109l0,.28c-.14,0-.14,0-.12-.13Zm-.63-8.58,0,.27-.14,0C474,100.57,474.11,100.56,474.12,100.42Zm12.54-7.94c1.41-1.77,2.78-3.12,4.91-3.58,1.39,1.67,1.19,3.88,1,6.09-.68,7.74-9.87,20.18-15.18,26.68-.62.73-4.1,5.42-4.8,5.48C475.71,115.37,478.5,102.78,486.66,92.48Zm-14.08,36.18a99.4,99.4,0,0,0,15-20.22,45.21,45.21,0,0,0,4.6-9.44c.18-.56.1-1.09.91-1.18-1.26,7.78-14.88,25.28-20.59,31.39Zm-3-1.79V127l-.14,0Zm-26.05,11,0,.27c-.13-.12-.13-.12-.12-.26Zm-5,5a2.36,2.36,0,0,1-.36.85,1,1,0,0,0-.1-.4A.56.56,0,0,1,438.46,142.85Zm-4.83,7.27a20,20,0,0,1,2.08-7.72C434.93,144.93,434.29,147.46,433.63,150.12Zm2.63-1.32a15.47,15.47,0,0,1,1.54-4.8l.29-.16-1.79,6C436.34,149.47,436.22,149.21,436.26,148.8Zm1.91,6.69a20.15,20.15,0,0,1-.05-4.11c.42-4.7,2.14-8.42,4.61-12.74l.73-.34C439.9,143.82,439.25,149.63,438.17,155.49Zm3.15-8.78-.14,0,0-.28h.14Zm18.47-5.7c-.12,1.38-12.1,17.09-14,19.3a28.6,28.6,0,0,1-2.89,2.72c-1.78-1.9-1.57-7.41-1.32-10.17.64-7.19,3.89-15.56,10.06-20.75a2.51,2.51,0,0,1,1.59-.69c3.09-.26,4.62,2.9,6.72,4.36l.28,0ZM469,128.42h.14l-.15.15Zm-.49,2.38.15,0-.08.83h-.14ZM498,123c1-.22,1.62.55,2.6.46a2.62,2.62,0,0,0,1.3-.52c.16-1.8-.23-3.68-.07-5.48.3-3.31,2.1-6.35,2.39-9.67A2.32,2.32,0,0,0,503,105.6l-.72.2.13-1.38-1.66-.13.36-1-1.34-.57a3.38,3.38,0,0,1-1,.78l.08-1-.69-.08-.37-.52c-2.66.23-4.85,7.55-5,9.62C492.42,115.43,494.81,121.4,498,123Zm42.86,48.83a1.61,1.61,0,0,0,1.53-1.5c-1.2-.58-1.51-1.79-1.39-3.17.82-9.26,13.42-38.19,18.07-48.18.87-2,3.62-7.86,3.78-9.66.28-3.17-4.66-5.49-7.29-5.67a10.77,10.77,0,0,0-3.89,2.94c-3.84,4-7.55,8.19-11.26,12.35-9.58,10.7-18,22.12-26.78,33.43l-.27-.11c3.52-8.26,10.5-25.73,11.21-33.74a8.4,8.4,0,0,0-4.94-8.63,10.62,10.62,0,0,0-1.89-.66,1.5,1.5,0,0,0-1.47.82,10,10,0,0,1,.24,2c-.33,3.73-2,8-3.39,11.54-1,2.72-2.46,6.55-3.93,10.69-2.49,3.07-5.23,6-7.59,9.23-4,5.41-7.81,11.09-12.16,16.27a1.25,1.25,0,0,0-.11-.41c0-.13.16-.15.17-.29l4-10.49c2-5.11,4.23-10,4.7-15.21.58-6.64-4.18-9.38-10.29-9.67-.43.17-1.3.52-1.34,1.07s.29,1.35.23,2l-.05.55a96,96,0,0,1-4.85,17c-2.59,7.22-5.12,15.25-5.78,22.71-.37,4.15,2.39,6.11,6.45,5.76a4.17,4.17,0,0,0,2.9-1.21c3.53-3.74,8.56-10.2,11.72-14.45,2.53-3.37,4.8-7,7.2-10.5l1.31-1.89a61.33,61.33,0,0,0-2.53,10.91c-.37,4.15,3.51,7.52,7.58,7.17a3.38,3.38,0,0,0,2.32-1c3.93-3.49,12.14-16,15.51-20.94,5.28-7.72,11.15-15.77,17.88-22.52a8.15,8.15,0,0,1,1.33-.94c-1.9,4.14-4.07,8.17-5.7,12.42-3.41,8.66-8.82,20.92-9.59,29.63C531.92,166.06,532.88,172.56,540.87,171.87ZM492.24,141l.28,0c-.17.29-.2.7-.36.85Zm-9.15,26.15-.28,0c1.14-5,3.4-10,5.23-15,1.26-3.26,2-6.62,3.92-9.66C489,150.7,485.91,158.92,483.09,167.11Zm11.15-9.46c.33-.58.67-1.29,1.38-1.49Zm1.88-2.35,0-.28c.07-.83.66-1.16,1.37-1.36Zm6.54-7.84-.6.47a21.07,21.07,0,0,0,1.92-2.78A13,13,0,0,1,502.66,147.46Zm4-5.74a10,10,0,0,1-.54.92.41.41,0,0,0,.21.1c0,.09-.05.18-.08.28l-.18.17,0-.55-.72.33,1.5-2Zm1-3.13c-.62.79-1.29,1.54-2,2.3a42.22,42.22,0,0,1,2.72-4.44C508.22,137.16,508,137.87,507.73,138.59Zm.89-2.6c-6.28,8.4-12.44,16.79-18.6,25.18a16.08,16.08,0,0,1-1.51,1.36c1.48-2.59,3.63-4.84,5.38-7.32,2.73-4.07,5.73-8,8.46-12.11a51,51,0,0,1,6.37-7.38C508.69,135.81,508.66,135.9,508.62,136Zm48.59-25.73.13.13-.18.43Zm-1.05,2.42c-.7,1.57-1.67,3.17-2.51,4.75A20.74,20.74,0,0,1,556.16,112.68ZM554.63,111c-1.64,2.89-3.43,5.78-4.94,8.66l-.45.31-.1,1.11-.4-.11.5-1a88.1,88.1,0,0,1,5.46-9.66Zm-25.22,22.2a279.15,279.15,0,0,1,22.16-25.36l.26.25-.47.59c-7.93,9.32-16.77,17.9-23.91,27.7a53.88,53.88,0,0,1-3.17,4.39c-.62.74-1.21,1.07-1.56,1.92l-.63.74C524.08,139.86,526.88,136.6,529.41,133.23Zm-3.27,7,0-.28.29,0a1.23,1.23,0,0,0,.4.1.58.58,0,0,1-.43.17l-.07.83-.56.05a1,1,0,0,1-.2.57.48.48,0,0,1-.1-.41l0-.41.27.11a.82.82,0,0,1,.55.09A5,5,0,0,0,526.14,140.23Zm-1.15,2-.18.42-.7.06a1.36,1.36,0,0,0,.33-.57l.42,0Zm-9.32,14a.83.83,0,0,1,.33-.58Zm4.56-5.88-.63.74a5.67,5.67,0,0,1,1.28-1.76A6.46,6.46,0,0,0,520.23,150.34Zm.3-1.81.15-.15C520.67,148.52,520.67,148.52,520.53,148.53Zm-1.59-1a18,18,0,0,1,2.37-3.09C520.52,145.51,519.87,146.53,518.94,147.57Zm3.15-1H522l.15-.15Zm.22.67a17.71,17.71,0,0,1,2.69-3.66A39.15,39.15,0,0,1,522.31,147.28Zm2.88-2.58,0-.28.13.13Zm-.17-1.22a24.94,24.94,0,0,1,2.08-3.06A13.2,13.2,0,0,1,525,143.48Zm2.61-4.34c-.42,0-.59.32-.62.74-.13-.13-.11-.4-.1-.54l0-.42.27.12a.45.45,0,0,1,.41.1,1.63,1.63,0,0,0-.07-.82l0-.27h.14a1.24,1.24,0,0,0,.41.1l-.3.16A1.9,1.9,0,0,1,527.63,139.14Zm.55.09-.31.3.5-.87Zm2.29-2.25,0-.28.15-.15A.58.58,0,0,1,530.47,137Zm-.11-.41v.14a3.66,3.66,0,0,0-.89.63l1.27-1.76A2.14,2.14,0,0,1,530.36,136.57Zm8.9-10.77a12.11,12.11,0,0,0-2,2.5l-.77.75-.28,0-.63.88.27.11a1.75,1.75,0,0,0-.63.74l-.44.31a9.68,9.68,0,0,1-1.6,2.33l-.28,0-1,.63a5,5,0,0,0,.68-1.43,53.78,53.78,0,0,0-4.23,5.31l-.09-.55,0-.41A207.9,207.9,0,0,1,549,112.89c-1.72,2.06-9.24,10-10.09,11.7a38.67,38.67,0,0,0,5-5.1l0,.55.27.12A29.1,29.1,0,0,0,539.26,125.8Zm8-9.06a10,10,0,0,0-1.67,1.65,2.59,2.59,0,0,0-1.32.66l6-6.41-1.72,2.2C548.51,115.67,547.65,116,547.3,116.74Zm1.22,5.1,0,.28h-.14C548.37,122,548.51,122,548.52,121.84Zm-1.2,2.58h.14l-.15.14Zm12.44-14.65.41.1c-3.33,7.69-7.2,15.16-10.53,22.85-2.79,6.41-4.79,13.16-7.72,19.59a3.89,3.89,0,0,1-.64.88C545.64,140.19,552.83,121.88,559.76,109.77Zm-18.5,43.69a34.38,34.38,0,0,1-.88,3.64L540,157ZM539.74,158h.14l0,.41h-.14Zm52.45-41.82c2-.17,5.65,2.26,7.24,3.22a8.29,8.29,0,0,0,.57-1.7,2.07,2.07,0,0,0-.46-1.19,15.13,15.13,0,0,0-14.16-6.74c-13.47,1.17-25.47,18.65-26.55,30.81A10.47,10.47,0,0,0,570.49,152c6.45-.56,10.65-7.09,15.46-11.07-.65,4.17-2.11,11.29-4.67,14.94a3.09,3.09,0,0,0-2.74-2.09l-.46-1.06a63.15,63.15,0,0,0-14.52,11.4c-8.71,8.7-24.29,30.47-25.3,41.81-.45,5.11,5.43,7.89,10.06,7.5,6-.53,12.62-5.75,16.91-10.1,11-11.24,17.64-24.56,23-38.46,4.15-10.65,6.11-21.79,7.08-32.7a3,3,0,0,0-1.67-3.15l-5.19-2.71c-2.55,2.14-4.4,5.73-6.31,8.36a38.64,38.64,0,0,1-10.7,10.66,7.07,7.07,0,0,1-3,1.36l-.7.06c0-.41-.08-.68,0-1.09C568.69,134.64,579.71,117.24,592.19,116.16ZM584,141.28h-.13l.44-.31Zm-2.14,21H582l-.15.15Zm-16.32,8.12c0,.14,0,.14-.15.15Zm-4.53-.7c0,.13,0,.13-.16.15Zm-10.79,14.78-5.6,9.8a3.74,3.74,0,0,1-1,1.87C544.13,194.76,549.44,185.12,550.19,184.51Zm-.94,6-.31.3A.38.38,0,0,1,549.25,190.48Zm-4.44,13.83-.28,0,.35-.72Zm3.6-9.09c3-5.33,6.51-10.57,9.76-15.79l.9-.76c-.84,1.58-1.8,3-2.77,4.49A130.73,130.73,0,0,0,548.61,196c-1.19,2.44-1.84,5.1-3.71,7.32C546.12,200.63,546.92,197.82,548.41,195.22Zm-.13,10.84-1,.5-.42,0c1.18-11.76,23.89-40,34.16-47.51C574.74,174.71,563.73,196.78,548.28,206.06Zm32.26-40.21-.15.15v-.14Zm-.89,2.13-.35.85A2.33,2.33,0,0,1,579.65,168Zm-4.89,9.61a1,1,0,0,0-.19.57l-.47.58A3.61,3.61,0,0,1,574.76,177.59Zm-6.87,11.56c2-3.46,4.09-6.93,6.2-10.27C572.4,182.18,570.38,186.2,567.89,189.15Zm2.74.45a1.41,1.41,0,0,1-.59.33Zm-2.33,2.67,0,.28h-.14C568.15,192.42,568.16,192.28,568.3,192.27Zm11.14-11h-.14l.16-.15Zm3-8.76c-3.53,8.39-9,18.05-15.31,25a71.94,71.94,0,0,1,4.35-6.68,152.09,152.09,0,0,0,13-24.43,3.55,3.55,0,0,1,.66-1.16C584.13,167.73,583.5,170.12,582.45,172.54Zm2.91-7.66.44-1.82.42,0A8.06,8.06,0,0,1,585.36,164.88Zm1.38-3-.42,0,.48-.73ZM586.25,136l.16-.15h.14C586.39,136,586.39,136,586.25,136Zm.56,25.05.08-.83.26.11C587,160.49,587,160.9,586.81,161.06Zm.53-31,.27.11a27,27,0,0,1-2.21,2.94Zm-3.7,10.33a13.74,13.74,0,0,1,1.71-2.07A5.29,5.29,0,0,1,583.64,140.35Zm1.19-2.44-.3.3c0-.13.15-.15.16-.28Zm-.23-3.68c-1.57,2.06-3.28,4-4.84,5.9Zm-5.12,10.59.56,0,0-.28c.08-1,1.12-1.6,1.87-2.21l-1.9,2.49a1,1,0,0,1-.57.19Zm-6.15-26.35h.14l-.46.45Zm-.45,3.47.13.13-.17.28Zm-5.37,13.49-.27-.11.45-.45A.91.91,0,0,0,567.51,135.43Zm-1-9.38a31.47,31.47,0,0,1,3.61-4.56A25.9,25.9,0,0,1,566.53,126.05Zm4.16,3.35a36.73,36.73,0,0,1-2.61,4.2,27.09,27.09,0,0,1,8.32-12.1,1.58,1.58,0,0,1,1-.5A43.39,43.39,0,0,0,570.69,129.4Z" fill="#fff" />
</svg>